<svg width="189" height="189" viewBox="0 0 189 189" fill="none" xmlns="http://www.w3.org/2000/svg">
<path d="M157.581 149.543C120.422 178.155 68.5906 177.926 31.6851 148.987L58.7343 136.307C60.0225 135.702 61.2588 134.992 62.4309 134.184C62.7867 133.939 63.1424 133.684 63.4815 133.417C66.4254 131.164 68.8486 128.303 70.5857 125.029C71.8989 122.513 72.7713 119.79 73.165 116.979C73.4365 115.156 73.574 113.314 73.5764 111.471C73.5764 108.291 73.404 105.111 73.3707 101.926C73.3484 100.162 73.3299 98.3999 73.3151 96.6396L74.4269 97.1955L77.3174 98.6909L78.6571 98.9188L94.1551 101.554L111.454 104.5L111.977 122.288L112.149 128.103L112.232 130.926V131.11L118.959 133.845L157.581 149.543Z" fill="#DE8276"/>
<path d="M112.121 130.004C110.211 130.332 108.245 130.028 106.524 129.136L73.354 102.021C73.3151 100.764 73.2817 102.082 73.2651 100.825C73.2428 99.0614 73.2243 97.2992 73.2095 95.5389L74.3212 96.0948L77.2118 97.5901L78.5515 97.8181L94.0495 100.453L111.349 103.399L111.871 121.187L112.043 127.002L112.127 129.826V130.009L112.121 130.004Z" fill="#A76962"/>
<path d="M129.242 81.6697C128.378 82.5737 127.431 83.3944 126.413 84.1212C120.632 88.307 112.916 89.68 106.323 91.9369C103.544 92.8874 73.404 101.454 73.404 103.316C73.404 102.91 70.4523 99.9805 66.7334 96.4229C53.9068 84.138 49.6306 65.3937 55.8604 48.7615C61.9251 32.8243 81.2586 21.8401 97.4515 19.2997C105.162 18.0935 114.311 17.4208 121.432 21.1175C125.073 23.013 128.103 25.7758 130.882 28.8387C131.749 29.8059 132.591 30.7935 133.406 31.8015C133.756 32.224 134.101 32.6465 134.44 33.0745C147.097 48.9727 142.611 67.6226 129.242 81.6697Z" fill="url(#paint0_linear_67_1200)"/>
<path d="M129.243 81.6698C128.378 82.5737 127.431 83.3945 126.413 84.1212C126.176 83.7076 125.962 83.2807 125.774 82.8427C124.306 79.5074 123.55 75.8886 122.994 72.2809C122.129 67.0307 121.537 61.7389 121.221 56.4272C120.715 47.8999 117.074 43.6697 124.317 37.0213C126.924 34.6324 130.028 32.8516 133.406 31.8071C133.756 32.2296 134.101 32.6521 134.44 33.0801C147.097 48.9728 142.611 67.6226 129.243 81.6698Z" fill="url(#paint1_linear_67_1200)"/>
<circle cx="67.845" cy="81.086" r="9.45" fill="#E18477"/>
<ellipse cx="70.8468" cy="81.086" rx="8.46053" ry="8.46053" fill="#A76962"/>
<path d="M71.5531 72.1252C72.0145 78.1621 71.9978 85.5331 72.1591 87.6899C72.5778 93.0968 72.9929 98.5018 73.4042 103.905L110.337 125.479C115.638 127.46 121.576 125.09 124.056 120.003C129.37 109.119 137.898 91.9313 136.775 85.5387C135.107 76.0887 130.66 72.7534 130.66 72.7534L132.511 61.6691C134.385 50.4013 130.521 39.734 117.358 38.4999C114.578 38.2442 111.482 38.7723 109.831 40.9903C105.384 46.9715 107.947 54.3314 101.271 59.8903C93.1658 66.5775 75.083 69.4959 70.8472 64.0983C70.8472 64.0983 71.2363 67.9172 71.5531 72.1252Z" fill="#DE8276"/>
<path d="M99.269 95.7058C101.94 98.6885 105.601 100.602 109.575 101.092" stroke="#00214E"/>
<path d="M112.399 69.4625C112.354 69.6571 119.826 89.5466 119.826 89.5466L109.853 90.0302" stroke="#00214E"/>
<path d="M88.7852 65.6048C93.931 64.5405 99.2241 64.3899 104.422 65.16" stroke="#00214E"/>
<path d="M121.61 65.677C124.787 64.9368 128.062 64.7097 131.311 65.0044" stroke="#00214E"/>
<path d="M157.581 149.543C120.422 178.155 68.5906 177.926 31.6851 148.987L58.7343 136.307C60.0225 135.702 61.2588 134.992 62.4309 134.184C62.7867 133.939 63.1424 133.684 63.4815 133.417C66.4254 131.164 68.8486 128.303 70.5857 125.029C71.8989 122.513 72.7713 119.79 73.165 116.979C73.5576 117.36 73.9695 117.72 74.3991 118.058C77.8075 120.578 81.5065 122.68 85.4166 124.317C87.315 125.109 89.2562 125.794 91.2312 126.368C97.1813 128.103 103.394 128.76 109.575 128.308C110.431 128.242 111.293 128.158 112.149 128.097L112.232 130.921V131.104L118.959 133.839L157.581 149.543Z" fill="#00214E"/>
<path d="M96.3622 71.8528C99.753 71.8528 99.753 77.067 96.3622 77.0947H96.2065C92.8101 77.0947 92.8101 71.8806 96.2065 71.8528H96.3566H96.3622Z" fill="#00214E"/>
<path d="M124.228 71.0802C127.375 71.108 127.375 75.9164 124.228 75.9442H124.084C120.938 75.9442 120.938 71.108 124.084 71.0802H124.228Z" fill="#00214E"/>
<defs>
<linearGradient id="paint0_linear_67_1200" x1="53.0031" y1="103.337" x2="141.933" y2="103.337" gradientUnits="userSpaceOnUse">
<stop stop-color="#16243F"/>
<stop offset="1" stop-color="#6878B1"/>
</linearGradient>
<linearGradient id="paint1_linear_67_1200" x1="105.378" y1="66.197" x2="142.665" y2="76.7756" gradientUnits="userSpaceOnUse">
<stop stop-color="#16243F"/>
<stop offset="1" stop-color="#6878B1"/>
</linearGradient>
</defs>
</svg>
