<svg width="85" height="39" viewBox="0 0 85 39" fill="none" xmlns="http://www.w3.org/2000/svg">
<path d="M1.67816 13.7373C4.58797 10.554 12.4301 4.58323 20.5199 6.16627C30.6322 8.14507 36.2502 13.7373 49.2147 13.7373C62.1792 13.7373 72.5508 -0.458362 83.8732 2.55281" stroke="#B2C4F0" stroke-width="3"/>
<path d="M1.67816 25.3407C4.58797 22.1574 12.4301 16.1866 20.5199 17.7697C30.6322 19.7485 36.2502 25.3407 49.2147 25.3407C62.1792 25.3407 72.5508 11.145 83.8732 14.1562" stroke="#B2C4F0" stroke-width="3"/>
<path d="M1.67816 36.9442C4.58797 33.7609 12.4301 27.7901 20.5199 29.3732C30.6322 31.352 36.2502 36.9442 49.2147 36.9442C62.1792 36.9442 72.5508 22.7485 83.8732 25.7597" stroke="#B2C4F0" stroke-width="3"/>
</svg>
