<svg width="94" height="84" viewBox="0 0 94 84" fill="none" xmlns="http://www.w3.org/2000/svg">
<path opacity="0.8" d="M55.8807 4.94975L88.8955 37.9645C90.8481 39.9171 90.8481 43.0829 88.8955 45.0355L55.8808 78.0502C53.9281 80.0029 50.7623 80.0029 48.8097 78.0503L15.795 45.0355C13.8423 43.0829 13.8423 39.9171 15.795 37.9645L48.8097 4.94975C50.7623 2.99713 53.9281 2.99713 55.8807 4.94975Z" stroke="url(#paint0_linear_1_645)" stroke-width="2"/>
<path d="M45.0355 5.10404L78.0502 38.1188C80.0029 40.0714 80.0029 43.2372 78.0503 45.1898L45.0355 78.2045C43.0829 80.1572 39.9171 80.1572 37.9645 78.2046L4.94975 45.1898C2.99713 43.2372 2.99713 40.0714 4.94975 38.1188L37.9645 5.10405C39.9171 3.15143 43.0829 3.15142 45.0355 5.10404Z" stroke="#FF9000" stroke-width="2"/>
<defs>
<linearGradient id="paint0_linear_1_645" x1="10.8452" y1="41.5" x2="93.8452" y2="41.5" gradientUnits="userSpaceOnUse">
<stop offset="0.301" stop-color="#FF9000"/>
<stop offset="0.701" stop-color="#995600"/>
</linearGradient>
</defs>
</svg>
