<svg width="721" height="536" viewBox="0 0 721 536" fill="none" xmlns="http://www.w3.org/2000/svg">
<circle cx="39.7067" cy="160.462" r="5" transform="rotate(-8.81526 39.7067 160.462)" fill="#DCE2EE"/>
<circle cx="48.9016" cy="219.753" r="5" transform="rotate(-8.81526 48.9016 219.753)" fill="#DCE2EE"/>
<circle cx="58.0966" cy="279.044" r="5" transform="rotate(-8.81526 58.0966 279.044)" fill="#DCE2EE"/>
<circle cx="67.2915" cy="338.336" r="5" transform="rotate(-8.81526 67.2915 338.336)" fill="#DCE2EE"/>
<circle cx="76.4865" cy="397.627" r="5" transform="rotate(-8.81526 76.4865 397.627)" fill="#DCE2EE"/>
<circle cx="85.6814" cy="456.918" r="5" transform="rotate(-8.81526 85.6814 456.918)" fill="#DCE2EE"/>
<circle cx="94.8764" cy="516.209" r="5" transform="rotate(-8.81526 94.8764 516.209)" fill="#DCE2EE"/>
<circle cx="98.998" cy="151.267" r="5" transform="rotate(-8.81526 98.998 151.267)" fill="#DCE2EE"/>
<circle cx="108.193" cy="210.558" r="5" transform="rotate(-8.81526 108.193 210.558)" fill="#DCE2EE"/>
<circle cx="117.388" cy="269.849" r="5" transform="rotate(-8.81526 117.388 269.849)" fill="#DCE2EE"/>
<circle cx="126.583" cy="329.141" r="5" transform="rotate(-8.81526 126.583 329.141)" fill="#DCE2EE"/>
<circle cx="135.778" cy="388.432" r="5" transform="rotate(-8.81526 135.778 388.432)" fill="#DCE2EE"/>
<circle cx="144.973" cy="447.723" r="5" transform="rotate(-8.81526 144.973 447.723)" fill="#DCE2EE"/>
<circle cx="154.168" cy="507.014" r="5" transform="rotate(-8.81526 154.168 507.014)" fill="#DCE2EE"/>
<circle cx="158.289" cy="142.072" r="5" transform="rotate(-8.81526 158.289 142.072)" fill="#DCE2EE"/>
<circle cx="167.484" cy="201.363" r="5" transform="rotate(-8.81526 167.484 201.363)" fill="#DCE2EE"/>
<circle cx="176.679" cy="260.654" r="5" transform="rotate(-8.81526 176.679 260.654)" fill="#DCE2EE"/>
<circle cx="185.874" cy="319.946" r="5" transform="rotate(-8.81526 185.874 319.946)" fill="#DCE2EE"/>
<circle cx="195.069" cy="379.237" r="5" transform="rotate(-8.81526 195.069 379.237)" fill="#DCE2EE"/>
<circle cx="204.264" cy="438.528" r="5" transform="rotate(-8.81526 204.264 438.528)" fill="#DCE2EE"/>
<circle cx="213.459" cy="497.819" r="5" transform="rotate(-8.81526 213.459 497.819)" fill="#DCE2EE"/>
<circle cx="217.58" cy="132.877" r="5" transform="rotate(-8.81526 217.58 132.877)" fill="#DCE2EE"/>
<circle cx="226.775" cy="192.168" r="5" transform="rotate(-8.81526 226.775 192.168)" fill="#DCE2EE"/>
<circle cx="235.97" cy="251.459" r="5" transform="rotate(-8.81526 235.97 251.459)" fill="#DCE2EE"/>
<circle cx="245.165" cy="310.751" r="5" transform="rotate(-8.81526 245.165 310.751)" fill="#DCE2EE"/>
<circle cx="254.36" cy="370.042" r="5" transform="rotate(-8.81526 254.36 370.042)" fill="#DCE2EE"/>
<circle cx="263.555" cy="429.333" r="5" transform="rotate(-8.81526 263.555 429.333)" fill="#DCE2EE"/>
<circle cx="272.75" cy="488.625" r="5" transform="rotate(-8.81526 272.75 488.625)" fill="#DCE2EE"/>
<circle cx="276.872" cy="123.682" r="5" transform="rotate(-8.81526 276.872 123.682)" fill="#DCE2EE"/>
<circle cx="286.067" cy="182.973" r="5" transform="rotate(-8.81526 286.067 182.973)" fill="#DCE2EE"/>
<circle cx="295.262" cy="242.265" r="5" transform="rotate(-8.81526 295.262 242.265)" fill="#DCE2EE"/>
<circle cx="304.457" cy="301.556" r="5" transform="rotate(-8.81526 304.457 301.556)" fill="#DCE2EE"/>
<circle cx="313.651" cy="360.847" r="5" transform="rotate(-8.81526 313.651 360.847)" fill="#DCE2EE"/>
<circle cx="322.846" cy="420.138" r="5" transform="rotate(-8.81526 322.846 420.138)" fill="#DCE2EE"/>
<circle cx="332.041" cy="479.43" r="5" transform="rotate(-8.81526 332.041 479.43)" fill="#DCE2EE"/>
<circle cx="336.163" cy="114.487" r="5" transform="rotate(-8.81526 336.163 114.487)" fill="#DCE2EE"/>
<circle cx="345.358" cy="173.778" r="5" transform="rotate(-8.81526 345.358 173.778)" fill="#DCE2EE"/>
<circle cx="354.553" cy="233.07" r="5" transform="rotate(-8.81526 354.553 233.07)" fill="#DCE2EE"/>
<circle cx="363.748" cy="292.361" r="5" transform="rotate(-8.81526 363.748 292.361)" fill="#DCE2EE"/>
<circle cx="372.943" cy="351.652" r="5" transform="rotate(-8.81526 372.943 351.652)" fill="#DCE2EE"/>
<circle cx="382.138" cy="410.943" r="5" transform="rotate(-8.81526 382.138 410.943)" fill="#DCE2EE"/>
<circle cx="391.333" cy="470.235" r="5" transform="rotate(-8.81526 391.333 470.235)" fill="#DCE2EE"/>
<circle cx="395.454" cy="105.292" r="5" transform="rotate(-8.81526 395.454 105.292)" fill="#DCE2EE"/>
<circle cx="404.649" cy="164.583" r="5" transform="rotate(-8.81526 404.649 164.583)" fill="#DCE2EE"/>
<circle cx="413.844" cy="223.875" r="5" transform="rotate(-8.81526 413.844 223.875)" fill="#DCE2EE"/>
<circle cx="423.039" cy="283.166" r="5" transform="rotate(-8.81526 423.039 283.166)" fill="#DCE2EE"/>
<circle cx="432.234" cy="342.457" r="5" transform="rotate(-8.81526 432.234 342.457)" fill="#DCE2EE"/>
<circle cx="441.429" cy="401.748" r="5" transform="rotate(-8.81526 441.429 401.748)" fill="#DCE2EE"/>
<circle cx="450.624" cy="461.04" r="5" transform="rotate(-8.81526 450.624 461.04)" fill="#DCE2EE"/>
<circle cx="454.745" cy="96.0972" r="5" transform="rotate(-8.81526 454.745 96.0972)" fill="#DCE2EE"/>
<circle cx="463.94" cy="155.388" r="5" transform="rotate(-8.81526 463.94 155.388)" fill="#DCE2EE"/>
<circle cx="473.135" cy="214.68" r="5" transform="rotate(-8.81526 473.135 214.68)" fill="#DCE2EE"/>
<circle cx="482.33" cy="273.971" r="5" transform="rotate(-8.81526 482.33 273.971)" fill="#DCE2EE"/>
<circle cx="491.525" cy="333.262" r="5" transform="rotate(-8.81526 491.525 333.262)" fill="#DCE2EE"/>
<circle cx="500.72" cy="392.553" r="5" transform="rotate(-8.81526 500.72 392.553)" fill="#DCE2EE"/>
<circle cx="509.915" cy="451.845" r="5" transform="rotate(-8.81526 509.915 451.845)" fill="#DCE2EE"/>
<circle cx="514.037" cy="86.9022" r="5" transform="rotate(-8.81526 514.037 86.9022)" fill="#DCE2EE"/>
<circle cx="523.232" cy="146.193" r="5" transform="rotate(-8.81526 523.232 146.193)" fill="#DCE2EE"/>
<circle cx="532.427" cy="205.485" r="5" transform="rotate(-8.81526 532.427 205.485)" fill="#DCE2EE"/>
<circle cx="541.622" cy="264.776" r="5" transform="rotate(-8.81526 541.622 264.776)" fill="#DCE2EE"/>
<circle cx="550.816" cy="324.067" r="5" transform="rotate(-8.81526 550.816 324.067)" fill="#DCE2EE"/>
<circle cx="560.011" cy="383.359" r="5" transform="rotate(-8.81526 560.011 383.359)" fill="#DCE2EE"/>
<circle cx="569.206" cy="442.65" r="5" transform="rotate(-8.81526 569.206 442.65)" fill="#DCE2EE"/>
<circle cx="573.328" cy="77.7073" r="5" transform="rotate(-8.81526 573.328 77.7073)" fill="#DCE2EE"/>
<circle cx="582.523" cy="136.999" r="5" transform="rotate(-8.81526 582.523 136.999)" fill="#DCE2EE"/>
<circle cx="591.718" cy="196.29" r="5" transform="rotate(-8.81526 591.718 196.29)" fill="#DCE2EE"/>
<circle cx="600.913" cy="255.581" r="5" transform="rotate(-8.81526 600.913 255.581)" fill="#DCE2EE"/>
<circle cx="610.108" cy="314.872" r="5" transform="rotate(-8.81526 610.108 314.872)" fill="#DCE2EE"/>
<circle cx="619.303" cy="374.164" r="5" transform="rotate(-8.81526 619.303 374.164)" fill="#DCE2EE"/>
<circle cx="628.498" cy="433.455" r="5" transform="rotate(-8.81526 628.498 433.455)" fill="#DCE2EE"/>
<circle cx="340" cy="165" r="118" fill="#FF6A6A"/>
<circle cx="592" cy="526" r="10" fill="#8C7AFF"/>
<circle cx="11.9995" cy="426" r="12" fill="#FF9A7A"/>
<circle cx="491" cy="10" r="10" fill="#6BF0A8"/>
<g filter="url(#filter0_d_1_100)">
<rect x="609.861" y="117.283" width="85.863" height="85.863" rx="20" transform="rotate(30.4993 609.861 117.283)" fill="white"/>
</g>
<g filter="url(#filter1_d_1_100)">
<rect x="614.021" y="133.371" width="62.3637" height="62.3637" rx="20" transform="rotate(30.4993 614.021 133.371)" fill="white"/>
</g>
<rect x="617.319" y="151.991" width="17.1726" height="8.5863" rx="4" transform="rotate(30.4993 617.319 151.991)" fill="#545AE8"/>
<rect width="17.1726" height="8.5863" rx="4" transform="matrix(0.861635 0.507528 0.507528 -0.861635 617.441 191.259)" fill="#545AE8"/>
<rect x="611.799" y="161.362" width="17.1726" height="22.8968" rx="4" transform="rotate(30.4993 611.799 161.362)" fill="#545AE8"/>
<rect width="17.1726" height="22.8968" rx="4" transform="matrix(0.861635 0.507528 0.507528 -0.861635 622.961 181.888)" fill="#F48C06"/>
<g filter="url(#filter2_d_1_100)">
<rect x="73.9995" y="122.981" width="85.1083" height="85.1083" rx="20" transform="rotate(-12.8862 73.9995 122.981)" fill="white"/>
</g>
<g filter="url(#filter3_d_1_100)">
<rect x="87.95" y="131.737" width="61.8155" height="61.8155" rx="20" transform="rotate(-12.8862 87.95 131.737)" fill="white"/>
</g>
<g clip-path="url(#clip0_1_100)">
<path d="M120.809 156.969C121.264 158.959 123.236 160.204 125.214 159.752C127.191 159.3 128.425 157.32 127.97 155.331C127.515 153.341 125.543 152.095 123.565 152.547C121.588 153 120.354 154.979 120.809 156.969ZM133.341 154.102C133.796 156.092 135.768 157.337 137.746 156.885C139.723 156.433 140.957 154.453 140.502 152.463C140.047 150.474 138.075 149.228 136.097 149.68C134.12 150.133 132.886 152.112 133.341 154.102ZM112.682 162.619C114.659 162.167 115.893 160.187 115.438 158.198C114.983 156.208 113.011 154.962 111.033 155.414C109.056 155.867 107.822 157.846 108.277 159.836C108.732 161.826 110.704 163.072 112.682 162.619ZM139.948 158.277L136.367 159.096C134.39 159.548 133.156 161.528 133.611 163.517L134.023 165.319C134.251 166.313 135.237 166.936 136.225 166.71L143.387 165.072C144.375 164.846 144.992 163.856 144.765 162.861L144.353 161.06C143.898 159.07 141.925 157.824 139.948 158.277ZM127.416 161.144L123.835 161.963C121.858 162.415 120.624 164.395 121.079 166.385L121.491 168.186C121.719 169.18 122.705 169.804 123.693 169.577L130.855 167.939C131.843 167.713 132.46 166.723 132.233 165.728L131.821 163.927C131.365 161.937 129.393 160.691 127.416 161.144ZM114.884 164.011L111.303 164.83C109.326 165.282 108.092 167.262 108.547 169.252L108.959 171.053C109.186 172.047 110.173 172.671 111.161 172.444L118.322 170.806C119.311 170.58 119.928 169.59 119.701 168.595L119.289 166.794C118.833 164.804 116.861 163.558 114.884 164.011ZM108.973 146.408L134.037 140.674L135.685 147.879C137.066 147.563 138.438 147.819 139.587 148.465L137.432 139.044C137.08 137.505 135.589 136.528 134.108 136.867L107.254 143.011C105.773 143.349 104.855 144.877 105.207 146.416L107.362 155.838C108.117 154.756 109.241 153.929 110.621 153.613L108.973 146.408Z" fill="#545AE8"/>
</g>
<defs>
<filter id="filter0_d_1_100" x="529.663" y="94.6635" width="190.8" height="190.8" filterUnits="userSpaceOnUse" color-interpolation-filters="sRGB">
<feFlood flood-opacity="0" result="BackgroundImageFix"/>
<feColorMatrix in="SourceAlpha" type="matrix" values="0 0 0 0 0 0 0 0 0 0 0 0 0 0 0 0 0 0 127 0" result="hardAlpha"/>
<feOffset dy="14"/>
<feGaussianBlur stdDeviation="22"/>
<feColorMatrix type="matrix" values="0 0 0 0 0.337255 0 0 0 0 0.356863 0 0 0 0 0.866667 0 0 0 0.1 0"/>
<feBlend mode="normal" in2="BackgroundImageFix" result="effect1_dropShadow_1_100"/>
<feBlend mode="normal" in="SourceGraphic" in2="effect1_dropShadow_1_100" result="shape"/>
</filter>
<filter id="filter1_d_1_100" x="545.75" y="112.751" width="158.626" height="158.626" filterUnits="userSpaceOnUse" color-interpolation-filters="sRGB">
<feFlood flood-opacity="0" result="BackgroundImageFix"/>
<feColorMatrix in="SourceAlpha" type="matrix" values="0 0 0 0 0 0 0 0 0 0 0 0 0 0 0 0 0 0 127 0" result="hardAlpha"/>
<feOffset dy="16"/>
<feGaussianBlur stdDeviation="22"/>
<feColorMatrix type="matrix" values="0 0 0 0 0.0509804 0 0 0 0 0.0588235 0 0 0 0 0.109804 0 0 0 0.1 0"/>
<feBlend mode="normal" in2="BackgroundImageFix" result="effect1_dropShadow_1_100"/>
<feBlend mode="normal" in="SourceGraphic" in2="effect1_dropShadow_1_100" result="shape"/>
</filter>
<filter id="filter2_d_1_100" x="33.9517" y="77.9522" width="182.041" height="182.041" filterUnits="userSpaceOnUse" color-interpolation-filters="sRGB">
<feFlood flood-opacity="0" result="BackgroundImageFix"/>
<feColorMatrix in="SourceAlpha" type="matrix" values="0 0 0 0 0 0 0 0 0 0 0 0 0 0 0 0 0 0 127 0" result="hardAlpha"/>
<feOffset dy="14"/>
<feGaussianBlur stdDeviation="22"/>
<feColorMatrix type="matrix" values="0 0 0 0 0.337255 0 0 0 0 0.356863 0 0 0 0 0.866667 0 0 0 0.1 0"/>
<feBlend mode="normal" in2="BackgroundImageFix" result="effect1_dropShadow_1_100"/>
<feBlend mode="normal" in="SourceGraphic" in2="effect1_dropShadow_1_100" result="shape"/>
</filter>
<filter id="filter3_d_1_100" x="47.9022" y="93.9031" width="154.14" height="154.14" filterUnits="userSpaceOnUse" color-interpolation-filters="sRGB">
<feFlood flood-opacity="0" result="BackgroundImageFix"/>
<feColorMatrix in="SourceAlpha" type="matrix" values="0 0 0 0 0 0 0 0 0 0 0 0 0 0 0 0 0 0 127 0" result="hardAlpha"/>
<feOffset dy="16"/>
<feGaussianBlur stdDeviation="22"/>
<feColorMatrix type="matrix" values="0 0 0 0 0.0509804 0 0 0 0 0.0588235 0 0 0 0 0.109804 0 0 0 0.1 0"/>
<feBlend mode="normal" in2="BackgroundImageFix" result="effect1_dropShadow_1_100"/>
<feBlend mode="normal" in="SourceGraphic" in2="effect1_dropShadow_1_100" result="shape"/>
</filter>
<clipPath id="clip0_1_100">
<rect width="36.731" height="29.564" fill="white" transform="translate(102.778 144.035) rotate(-12.8862)"/>
</clipPath>
</defs>
</svg>
