<svg width="180" height="180" viewBox="0 0 180 180" fill="none" xmlns="http://www.w3.org/2000/svg">
<g filter="url(#filter0_d_1_34)">
<circle cx="90" cy="80" r="50" fill="#5B72EE"/>
</g>
<path d="M78 57C77.0532 57 76.2857 57.7675 76.2857 58.7143V62.1429H79.7142V58.7143C79.7142 57.7675 78.9467 57 78 57Z" fill="#F5F5FC"/>
<path d="M102 57C101.053 57 100.286 57.7675 100.286 58.7143V62.1429H103.714V58.7143C103.714 57.7675 102.947 57 102 57Z" fill="#F5F5FC"/>
<path d="M108.857 59H103.714V65.8572C103.714 66.804 102.947 67.5715 102 67.5715C101.053 67.5715 100.286 66.804 100.286 65.8572V59H79.7142V65.8572C79.7142 66.804 78.9467 67.5715 77.9999 67.5715C77.0531 67.5715 76.2856 66.804 76.2856 65.8572V59H71.1429C68.3025 59 66 61.3025 66 64.1429V96.7143C66 99.5546 68.3025 101.857 71.1429 101.857H108.857C111.697 101.857 114 99.5546 114 96.7143V64.1429C114 61.3025 111.697 59 108.857 59ZM110.571 96.7143C110.571 97.6611 109.804 98.4286 108.857 98.4286H71.1429C70.196 98.4286 69.4285 97.6611 69.4285 96.7143V74.4286H110.571V96.7143Z" fill="#F5F5FC"/>
<path d="M79.7142 81H76.2857C75.3389 81 74.5714 81.7675 74.5714 82.7143C74.5714 83.6611 75.3389 84.4286 76.2857 84.4286H79.7142C80.661 84.4286 81.4285 83.6611 81.4285 82.7143C81.4285 81.7675 80.661 81 79.7142 81Z" fill="#F5F5FC"/>
<path d="M91.7143 81H88.2857C87.3389 81 86.5714 81.7675 86.5714 82.7143C86.5714 83.6611 87.3389 84.4286 88.2857 84.4286H91.7143C92.6611 84.4286 93.4286 83.6611 93.4286 82.7143C93.4286 81.7675 92.6611 81 91.7143 81Z" fill="#F5F5FC"/>
<path d="M103.714 81H100.286C99.339 81 98.5714 81.7675 98.5714 82.7143C98.5714 83.6611 99.339 84.4286 100.286 84.4286H103.714C104.661 84.4286 105.429 83.6611 105.429 82.7143C105.429 81.7675 104.661 81 103.714 81Z" fill="#F5F5FC"/>
<path d="M79.7142 87.8572H76.2857C75.3389 87.8572 74.5714 88.6247 74.5714 89.5715C74.5714 90.5183 75.3389 91.2858 76.2857 91.2858H79.7142C80.661 91.2858 81.4285 90.5183 81.4285 89.5715C81.4285 88.6247 80.661 87.8572 79.7142 87.8572Z" fill="#F5F5FC"/>
<path d="M91.7143 87.8572H88.2857C87.3389 87.8572 86.5714 88.6247 86.5714 89.5715C86.5714 90.5183 87.3389 91.2858 88.2857 91.2858H91.7143C92.6611 91.2858 93.4286 90.5183 93.4286 89.5715C93.4286 88.6247 92.6611 87.8572 91.7143 87.8572Z" fill="#F5F5FC"/>
<path d="M103.714 87.8572H100.286C99.339 87.8572 98.5714 88.6247 98.5714 89.5715C98.5714 90.5183 99.339 91.2858 100.286 91.2858H103.714C104.661 91.2858 105.429 90.5183 105.429 89.5715C105.429 88.6247 104.661 87.8572 103.714 87.8572Z" fill="#F5F5FC"/>
<path d="M79.7142 94.7141H76.2857C75.3389 94.7141 74.5714 95.4816 74.5714 96.4284C74.5714 97.3752 75.3389 98.1426 76.2857 98.1426H79.7142C80.661 98.1426 81.4285 97.3751 81.4285 96.4283C81.4285 95.4815 80.661 94.7141 79.7142 94.7141Z" fill="#F5F5FC"/>
<path d="M91.7143 94.7141H88.2857C87.3389 94.7141 86.5714 95.4816 86.5714 96.4284C86.5714 97.3752 87.3389 98.1427 88.2857 98.1427H91.7143C92.6611 98.1427 93.4286 97.3752 93.4286 96.4284C93.4286 95.4816 92.6611 94.7141 91.7143 94.7141Z" fill="#F5F5FC"/>
<path d="M103.714 94.7141H100.286C99.339 94.7141 98.5714 95.4816 98.5714 96.4284C98.5714 97.3752 99.339 98.1427 100.286 98.1427H103.714C104.661 98.1427 105.429 97.3752 105.429 96.4284C105.429 95.4816 104.661 94.7141 103.714 94.7141Z" fill="#F5F5FC"/>
<defs>
<filter id="filter0_d_1_34" x="0" y="0" width="180" height="180" filterUnits="userSpaceOnUse" color-interpolation-filters="sRGB">
<feFlood flood-opacity="0" result="BackgroundImageFix"/>
<feColorMatrix in="SourceAlpha" type="matrix" values="0 0 0 0 0 0 0 0 0 0 0 0 0 0 0 0 0 0 127 0" result="hardAlpha"/>
<feOffset dy="10"/>
<feGaussianBlur stdDeviation="20"/>
<feColorMatrix type="matrix" values="0 0 0 0 0.212 0 0 0 0 0.238778 0 0 0 0 0.533333 0 0 0 0.06 0"/>
<feBlend mode="normal" in2="BackgroundImageFix" result="effect1_dropShadow_1_34"/>
<feBlend mode="normal" in="SourceGraphic" in2="effect1_dropShadow_1_34" result="shape"/>
</filter>
</defs>
</svg>
