<svg width="49" height="48" viewBox="0 0 49 48" fill="none" xmlns="http://www.w3.org/2000/svg">
<path d="M1.98438 29.29C1.98438 27.03 2.4295 24.792 3.2944 22.7041C4.15931 20.616 5.42698 18.7188 7.02509 17.1207C8.6232 15.5226 10.5204 14.2549 12.6084 13.39C14.6965 12.5252 16.9344 12.08 19.1945 12.08V29.29H1.98438Z" fill="#121212"/>
<path d="M1.98438 29.2899C1.98438 31.55 2.4295 33.7879 3.2944 35.876C4.15931 37.964 5.42698 39.8612 7.02509 41.4593C8.6232 43.0574 10.5204 44.3251 12.6084 45.19C14.6965 46.0549 16.9344 46.5 19.1945 46.5V29.2899H1.98438Z" fill="#121212"/>
<path d="M36.4041 29.2899C36.4041 31.55 35.9593 33.7879 35.0945 35.876C34.2296 37.964 32.962 39.8612 31.3636 41.4593C29.7655 43.0574 27.8683 44.3251 25.7802 45.19C23.6923 46.0549 21.4543 46.5 19.1943 46.5V29.2899H36.4041Z" fill="#121212"/>
<path d="M47.0154 14.422C47.0154 21.5586 41.2298 27.344 34.0933 27.344H21.1714V14.422C21.1714 7.2854 26.9568 1.5 34.0933 1.5C41.2298 1.5 47.0154 7.2854 47.0154 14.422Z" fill="#121212"/>
</svg>
