<svg width="4" height="17" viewBox="0 0 4 17" fill="none" xmlns="http://www.w3.org/2000/svg">
<g clip-path="url(#clip0_67_1247)">
<path d="M2 10.3889C3.10457 10.3889 4 9.54318 4 8.49997C4 7.45677 3.10457 6.61108 2 6.61108C0.89543 6.61108 0 7.45677 0 8.49997C0 9.54318 0.89543 10.3889 2 10.3889Z" fill="#909090"/>
<path d="M2 3.77778C3.10457 3.77778 4 2.93209 4 1.88889C4 0.845684 3.10457 0 2 0C0.89543 0 0 0.845684 0 1.88889C0 2.93209 0.89543 3.77778 2 3.77778Z" fill="#909090"/>
<path d="M2 16.9999C3.10457 16.9999 4 16.1543 4 15.1111C4 14.0679 3.10457 13.2222 2 13.2222C0.89543 13.2222 0 14.0679 0 15.1111C0 16.1543 0.89543 16.9999 2 16.9999Z" fill="#909090"/>
</g>
<defs>
<clipPath id="clip0_67_1247">
<rect width="4" height="17" fill="white"/>
</clipPath>
</defs>
</svg>
