<svg width="43" height="43" viewBox="0 0 43 43" fill="none" xmlns="http://www.w3.org/2000/svg">
<circle cx="21.5" cy="21.5" r="21.5" fill="white"/>
<path d="M21.5235 10.6425C17.5699 10.6425 14.3569 13.8555 14.3569 17.8091V21.2611C14.3569 21.9897 14.0463 23.1005 13.676 23.7216L12.3024 26.003C11.4544 27.4125 12.0397 28.9772 13.5924 29.5027C18.7405 31.2227 24.2947 31.2227 29.4427 29.5027C30.888 29.025 31.521 27.3169 30.7327 26.003L29.3591 23.7216C29.0008 23.1005 28.6902 21.9897 28.6902 21.2611V17.8091C28.6902 13.8675 25.4652 10.6425 21.5235 10.6425Z" stroke="#292D32" stroke-width="1.5" stroke-miterlimit="10" stroke-linecap="round"/>
<path d="M23.7334 10.9889C23.3631 10.8814 22.9809 10.7978 22.5867 10.75C21.4401 10.6067 20.3412 10.6903 19.314 10.9889C19.6604 10.105 20.5204 9.48389 21.5237 9.48389C22.527 9.48389 23.387 10.105 23.7334 10.9889Z" stroke="#292D32" stroke-width="1.5" stroke-miterlimit="10" stroke-linecap="round" stroke-linejoin="round"/>
<path d="M25.1071 29.9327C25.1071 31.9036 23.4946 33.5161 21.5238 33.5161C20.5443 33.5161 19.6365 33.11 18.9915 32.465C18.3465 31.82 17.9404 30.9122 17.9404 29.9327" stroke="#292D32" stroke-width="1.5" stroke-miterlimit="10"/>
<circle cx="28" cy="14" r="4" fill="#FFD700"/>
</svg>
