<svg width="14" height="14" viewBox="0 0 14 14" fill="none" xmlns="http://www.w3.org/2000/svg">
<g clip-path="url(#clip0_1_305)">
<path d="M13.3862 1.44243L10.7676 0.838134C10.483 0.772668 10.191 0.921224 10.0751 1.18812L8.86655 4.00815C8.7608 4.2549 8.8313 4.54446 9.04029 4.71316L10.5661 5.96203C9.65969 7.89325 8.07594 9.49966 6.10443 10.4237L4.85556 8.89789C4.68435 8.6889 4.39731 8.6184 4.15055 8.72415L1.33052 9.93274C1.06111 10.0511 0.912551 10.3432 0.978016 10.6277L1.58231 13.2463C1.64526 13.5182 1.88697 13.7146 2.17149 13.7146C8.6198 13.7146 13.8545 8.48999 13.8545 2.03161C13.8545 1.74961 13.6606 1.50537 13.3862 1.44243Z" fill="white"/>
</g>
<defs>
<clipPath id="clip0_1_305">
<rect x="0.963318" y="0.823486" width="12.8916" height="12.8916" fill="white"/>
</clipPath>
</defs>
</svg>
