<svg width="55" height="44" viewBox="0 0 55 44" fill="none" xmlns="http://www.w3.org/2000/svg">
<g clip-path="url(#clip0_1_30)">
<path d="M8.25 22.5C11.2836 22.5 13.75 20.0336 13.75 17C13.75 13.9664 11.2836 11.5 8.25 11.5C5.21641 11.5 2.75 13.9664 2.75 17C2.75 20.0336 5.21641 22.5 8.25 22.5ZM46.75 22.5C49.7836 22.5 52.25 20.0336 52.25 17C52.25 13.9664 49.7836 11.5 46.75 11.5C43.7164 11.5 41.25 13.9664 41.25 17C41.25 20.0336 43.7164 22.5 46.75 22.5ZM49.5 25.25H44C42.4875 25.25 41.1211 25.8602 40.1242 26.8484C43.5875 28.7477 46.0453 32.1766 46.5781 36.25H52.25C53.7711 36.25 55 35.0211 55 33.5V30.75C55 27.7164 52.5336 25.25 49.5 25.25ZM27.5 25.25C32.8195 25.25 37.125 20.9445 37.125 15.625C37.125 10.3055 32.8195 6 27.5 6C22.1805 6 17.875 10.3055 17.875 15.625C17.875 20.9445 22.1805 25.25 27.5 25.25ZM34.1 28H33.3867C31.5992 28.8594 29.6141 29.375 27.5 29.375C25.3859 29.375 23.4094 28.8594 21.6133 28H20.9C15.4344 28 11 32.4344 11 37.9V40.375C11 42.6523 12.8477 44.5 15.125 44.5H39.875C42.1523 44.5 44 42.6523 44 40.375V37.9C44 32.4344 39.5656 28 34.1 28ZM14.8758 26.8484C13.8789 25.8602 12.5125 25.25 11 25.25H5.5C2.46641 25.25 0 27.7164 0 30.75V33.5C0 35.0211 1.22891 36.25 2.75 36.25H8.41328C8.95469 32.1766 11.4125 28.7477 14.8758 26.8484Z" fill="white"/>
</g>
<defs>
<clipPath id="clip0_1_30">
<rect width="55" height="44" fill="white"/>
</clipPath>
</defs>
</svg>
